<?xml version="1.0" encoding="UTF-8" standalone="no"?>
<!DOCTYPE svg PUBLIC "-//W3C//DTD SVG 1.1//EN" "http://www.w3.org/Graphics/SVG/1.1/DTD/svg11.dtd">
<svg width="100%" height="100%" viewBox="0 0 2471 750" version="1.1" xmlns="http://www.w3.org/2000/svg" xmlns:xlink="http://www.w3.org/1999/xlink" xml:space="preserve" xmlns:serif="http://www.serif.com/" style="fill-rule:evenodd;clip-rule:evenodd;stroke-linejoin:round;stroke-miterlimit:2;">
    <g transform="matrix(3.01169,0,0,3.01169,-537.596,-720.548)">
        <path d="M738.99,457C738.99,439.994 724.996,426 707.99,426C690.984,426 676.99,439.994 676.99,457C676.99,474.006 690.984,488 707.99,488C724.996,488 738.99,474.006 738.99,457" style="fill:rgb(35,31,32);fill-rule:nonzero;"/>
        <path d="M869.49,421C878.99,421 882.49,427.5 882.49,431.5C882.49,435.5 883.99,442 893.49,442L907.99,442L907.99,462.5L901.99,462.5L901.99,452C890.99,452 873.49,460.5 873.49,472.5L847.49,472.5C841.74,466.75 833.49,449 823.99,449L809.49,449C804.99,449 801.49,453.5 800.99,456C800.49,458.5 796.99,476 796.99,476L770.99,476L766.99,456C766.99,456 762.99,449 758.49,449L743.99,449L720.49,472.5L694.49,472.5C694.49,460.5 676.99,452 665.99,452L665.99,462.5L659.99,462.5L659.99,442L674.49,442C674.49,442 685.49,435.5 685.49,431.5C685.49,427.5 688.99,421 698.49,421L869.49,421Z" style="fill:rgb(35,31,32);fill-rule:nonzero;"/>
        <path d="M890.99,457C890.99,439.994 876.996,426 859.99,426C842.984,426 828.99,439.994 828.99,457C828.99,474.006 842.984,488 859.99,488C876.996,488 890.99,474.006 890.99,457" style="fill:rgb(35,31,32);fill-rule:nonzero;"/>
        <path d="M286.99,457C286.99,439.994 272.996,426 255.99,426C238.984,426 224.99,439.994 224.99,457C224.99,474.006 238.984,488 255.99,488C272.996,488 286.99,474.006 286.99,457" style="fill:rgb(35,31,32);fill-rule:nonzero;"/>
        <path d="M417.49,421C426.99,421 430.49,427.5 430.49,431.5C430.49,435.5 431.99,442 441.49,442L455.99,442L455.99,462.5L449.99,462.5L449.99,452C438.99,452 421.49,460.5 421.49,472.5L395.49,472.5C389.74,466.75 381.49,449 371.99,449L357.49,449C352.99,449 349.49,453.5 348.99,456C348.49,458.5 344.99,476 344.99,476L318.99,476L314.99,456C314.99,456 310.99,449 306.49,449L291.99,449L268.49,472.5L242.49,472.5C242.49,460.5 224.99,452 213.99,452L213.99,462.5L207.99,462.5L207.99,442L222.49,442C222.49,442 233.49,435.5 233.49,431.5C233.49,427.5 236.99,421 246.49,421L417.49,421Z" style="fill:rgb(35,31,32);fill-rule:nonzero;"/>
        <path d="M438.99,457C438.99,439.994 424.996,426 407.99,426C390.984,426 376.99,439.994 376.99,457C376.99,474.006 390.984,488 407.99,488C424.996,488 438.99,474.006 438.99,457" style="fill:rgb(35,31,32);fill-rule:nonzero;"/>
        <path d="M884.08,268.5C880.503,264 871.246,256 857.913,256L610.663,256L610.663,251.833L431.333,251.833L431.333,256L205.503,256L205.503,288.5L194.003,288.5L194.003,421.5L206.503,421.5L206.503,433L196.003,433L196.003,427.5L183.503,427.5L183.503,432L178.503,432L178.503,451L184.003,451L184.003,455L191.003,455L196.003,450L208.003,450L208.003,460L214.503,460L214.503,421.5L437.503,421.5C437.503,421.5 458.753,430.25 470.503,442L485.503,442L485.503,462L518.003,462L518.003,466.5L572.003,466.5L572.003,462L604.503,462L604.503,442L619.503,442C631.253,430.25 640.503,421.5 652.503,421.5L875.503,421.5C891.003,421.5 896.003,434.75 903.753,442.5C925.837,442.5 942.003,461.834 942.003,477.75L990.253,477.75L977.337,450L981.337,450L986.337,455L993.337,455L993.337,451L998.837,451L998.837,432L993.837,432L993.837,427.5L981.337,427.5L981.337,433L970.837,433L970.837,430.25L978.336,425.832L978.336,407.832C978.336,401.498 973.336,386.5 972.336,383.166L976.002,381.499L967.336,339.832L963.336,339.499C963.336,339.499 963.002,330.832 961.669,328.166L966.002,325.166L960.002,297.166C954.669,294.499 939.668,295.166 936.002,295.166C932.336,295.166 923.335,295.499 921.002,295.499C918.669,295.499 909.009,296.749 900.003,285.832L884.086,268.5L884.08,268.5Z" style="fill:rgb(35,31,32);fill-rule:nonzero;"/>
        <path d="M194.49,421.5L186.49,418.334L182.157,422.668L179.157,422.668L179.157,287.338L182.157,287.338L186.49,291.671L194.49,288.504L194.49,421.5Z" style="fill:rgb(35,31,32);fill-rule:nonzero;"/>
        <path d="M816.244,254.5L813.994,254.5C813.994,248.5 795.119,249.375 786.244,249.375L777.994,249.375L777.994,244.375L786.244,244.375C795.119,244.375 813.994,245.25 813.994,239.25L816.244,239.25L816.244,254.5Z" style="fill:rgb(35,31,32);fill-rule:nonzero;"/>
        <rect x="782.99" y="242.38" width="3.125" height="13.5" style="fill:rgb(35,31,32);fill-rule:nonzero;"/>
        <rect x="805.31" y="242.38" width="3.125" height="13.5" style="fill:rgb(35,31,32);fill-rule:nonzero;"/>
        <rect x="438.99" y="247" width="14" height="4.5" style="fill:rgb(35,31,32);fill-rule:nonzero;"/>
        <rect x="488.99" y="247" width="14" height="4.5" style="fill:rgb(35,31,32);fill-rule:nonzero;"/>
        <rect x="538.99" y="247" width="14" height="4.5" style="fill:rgb(35,31,32);fill-rule:nonzero;"/>
        <rect x="588.99" y="247" width="14" height="4.5" style="fill:rgb(35,31,32);fill-rule:nonzero;"/>
        <path d="M852.17,287.829L852.17,315.496L872.504,315.496C878.504,315.496 880.833,308.999 876.333,304.499L862.086,290.329C860.128,288.371 857.128,287.829 853.997,287.829L852.17,287.829Z" style="fill:white;fill-rule:nonzero;"/>
        <rect x="781.49" y="287.83" width="28" height="27.666" style="fill:white;fill-rule:nonzero;"/>
        <rect x="822.16" y="287.83" width="28" height="27.666" style="fill:white;fill-rule:nonzero;"/>
        <path d="M897.203,285.553C897.827,286.23 897.758,287.261 897.048,287.857L881.876,301.277C881.168,301.872 880.086,301.806 879.461,301.13L866.537,287.031C865.914,286.354 865.982,285.323 866.692,284.727L881.864,271.307C882.572,270.712 883.654,270.778 884.279,271.455L897.203,285.553Z" style="fill:white;fill-rule:nonzero;"/>
        <path d="M487.1,340.09C487.1,331.861 480.329,325.09 472.1,325.09C463.871,325.09 457.1,331.861 457.1,340.09C457.1,348.319 463.871,355.09 472.1,355.09C480.329,355.09 487.1,348.319 487.1,340.09" style="fill:white;fill-rule:nonzero;"/>
        <path d="M563.59,340.09C563.59,331.861 556.819,325.09 548.59,325.09C540.361,325.09 533.59,331.861 533.59,340.09C533.59,348.319 540.361,355.09 548.59,355.09C556.819,355.09 563.59,348.319 563.59,340.09" style="fill:white;fill-rule:nonzero;"/>
        <path d="M640.09,340.09C640.09,331.861 633.319,325.09 625.09,325.09C616.861,325.09 610.09,331.861 610.09,340.09C610.09,348.319 616.861,355.09 625.09,355.09C633.319,355.09 640.09,348.319 640.09,340.09" style="fill:white;fill-rule:nonzero;"/>
        <path d="M243.17,435.57L243.17,462.612C243.17,463.847 242.169,464.848 240.934,464.848L220.062,464.848C218.827,464.848 217.826,463.847 217.826,462.612C217.825,462.612 217.825,452.883 217.825,435.57L243.17,435.57ZM217.824,433.334C217.824,433.334 217.824,420.501 217.825,420.501L215.589,420.501L215.589,462.426C215.589,464.896 217.592,466.899 220.062,466.899L240.934,466.899C243.405,466.899 245.407,464.896 245.407,462.426L245.407,420.501L243.171,420.501L243.171,433.334L217.824,433.334Z" style="fill:rgb(35,31,32);fill-rule:nonzero;"/>
    </g>
</svg>
