<svg viewBox="0 0 833 159" xmlns="http://www.w3.org/2000/svg" fill-rule="evenodd" clip-rule="evenodd" stroke-linejoin="round" stroke-miterlimit="1.5">
  <g transform="translate(-200 -118)">
    <!-- <path fill="none" d="M199.7 117.5H1032.4V276H199.7z"/> -->
    <clipPath id="a">
      <path d="M199.7 117.5H1032.4V276H199.7z"/>
    </clipPath>
    <g clip-path="url(#a)">
      <path d="M1993.94,822.857L3394.61,822.857" fill="none" stroke="#333" stroke-width="199.3" transform="matrix(.30272 0 0 .29932 -218 -4)"/>
      <path d="M1993.94,822.857L3394.61,822.857" fill="none" stroke="#333" stroke-width="385.1" transform="matrix(.1567 0 0 .15493 497 115)"/>
      <path d="M1993.94,822.857L2002.07,822.816C2002.07,822.816 2535.69,804.044 2715.58,780.319C2934.27,751.476 3370.77,651.026 3370.77,651.026" fill="none" stroke="#ff00fc" stroke-width="199.3" transform="matrix(.30272 0 0 .29932 -217 -3)"/>
      <path d="M1993.94,822.857L3394.61,822.857" fill="none" stroke="#ff00fc" stroke-width="464.1" transform="matrix(.13 0 0 .12854 -55 137)"/>
      <path d="M1993.94,822.857L3146.09,549.036" fill="none" stroke="#ff00fc" stroke-width="384.9" transform="matrix(.15687 0 0 .15493 490 64)"/>
      
    </g>
  </g>
</svg>