<svg xmlns="http://www.w3.org/2000/svg" version="1.1" viewBox="-5.0 -10.0 110.0 135.0">
 <path d="m80.863 37.328h-9.1992c-0.5625 0-1.082 0.30469-1.3594 0.79688-0.27734 0.49219-0.26563 1.0938 0.027343 1.5781 0 0 2.9805 4.8984 5.1875 8.5195 1.7227 2.832 4.7969 4.5586 8.1133 4.5586h6.7148l1.1562 3.6719h-24.195v-17.562c0-0.85938-0.69922-1.5625-1.5625-1.5625h-11.254c-0.86328 0-1.5625 0.70312-1.5625 1.5625v17.562h-45.988c-0.86328 0-1.5625 0.70312-1.5625 1.5625s0.69922 1.5625 1.5625 1.5625h85.336c-0.035156 0.55469-0.22656 1.0977-0.56641 1.5586-0.5625 0.76562-1.4492 1.2148-2.3945 1.2148h-82.375c-0.86328 0-1.5625 0.69922-1.5625 1.5625 0 0.86328 0.69922 1.5625 1.5625 1.5625h0.35547l0.003906 0.011719c0.15234 0.65234 0.39844 1.2773 0.73047 1.8555 0.33594 0.57812 0.75391 1.1094 1.2422 1.5703 0.48047 0.45703 1.0273 0.84375 1.6211 1.1445 0.62109 0.31641 1.293 0.53516 1.9805 0.65234 0.75 0.125 1.5195 0.125 2.2695 0 0.75391-0.125 1.4922-0.38281 2.168-0.75 0.50391-0.27344 0.96875-0.61328 1.3906-1.0039 0.22266-0.20703 0.42969-0.42578 0.62109-0.66016h0.027343c0.17188 0.21094 0.35938 0.41406 0.5625 0.60547 0.39063 0.37109 0.82031 0.69531 1.2852 0.96875 0.59375 0.34766 1.2422 0.60156 1.9102 0.75391 1.0547 0.24609 2.1641 0.23438 3.2148-0.023438 0.63672-0.15625 1.2578-0.41016 1.8242-0.74219 0.45703-0.26953 0.88672-0.59375 1.2695-0.95703 0.19922-0.19141 0.38672-0.39453 0.5625-0.60547h0.027343c0.19141 0.23438 0.39844 0.45312 0.62109 0.66016 0.41797 0.39062 0.88672 0.73047 1.3906 1.0039 0.67578 0.36719 1.4102 0.625 2.168 0.75 0.75 0.125 1.5195 0.125 2.2695 0 0.6875-0.11719 1.3594-0.33594 1.9805-0.65234 0.59375-0.30078 1.1406-0.6875 1.6211-1.1445 0.48828-0.46094 0.90625-0.99219 1.2383-1.5703 0.33594-0.57812 0.58203-1.2031 0.73438-1.8555l0.003906-0.011719h7.9453l0.003906 0.011719c0.15234 0.65234 0.39844 1.2773 0.73047 1.8555 0.33594 0.57812 0.75391 1.1094 1.2422 1.5703 0.48047 0.45703 1.0273 0.84375 1.6211 1.1445 0.62109 0.31641 1.293 0.53516 1.9805 0.65234 0.75 0.125 1.5195 0.125 2.2695 0 0.75781-0.125 1.4922-0.38281 2.168-0.75 0.50391-0.27344 0.96875-0.61328 1.3906-1.0039 0.22266-0.20703 0.42969-0.42578 0.62109-0.66016h0.027344c0.17578 0.21094 0.36328 0.41406 0.5625 0.60547 0.38281 0.36328 0.8125 0.6875 1.2695 0.95703 0.56641 0.33203 1.1836 0.58594 1.8242 0.74219 1.0508 0.25781 2.1602 0.26953 3.2148 0.023438 0.66797-0.15234 1.3164-0.40625 1.9102-0.75391 0.46484-0.27344 0.89453-0.59766 1.2852-0.96875 0.20313-0.19141 0.39063-0.39453 0.5625-0.60547h0.027344c0.19141 0.23438 0.39844 0.45312 0.62109 0.66016 0.41797 0.39062 0.88672 0.73047 1.3906 1.0039 0.67578 0.36719 1.4102 0.625 2.168 0.75 0.75 0.125 1.5195 0.125 2.2695 0 0.6875-0.11719 1.3594-0.33594 1.9805-0.65234 0.59375-0.30078 1.1406-0.6875 1.6211-1.1445 0.48828-0.46094 0.90625-0.99219 1.2422-1.5703 0.33203-0.57812 0.57812-1.2031 0.73047-1.8555l0.003906-0.011719h4.5977c1.9414 0 3.7695-0.92578 4.9141-2.4922 1.0938-1.4922 1.4492-3.3945 0.97266-5.1719-0.023437-0.17188-0.070313-0.33594-0.14844-0.48438l-2.8359-8.9844c-3.5977-11.398-14.168-19.148-26.121-19.148h-58.719c-0.86328 0-1.5625 0.69922-1.5625 1.5625 0 0.86328 0.69922 1.5625 1.5625 1.5625h58.719c5.4766 0 10.629 1.8359 14.766 5.0078zm-70.277 28.148c0.59375 1.3008 1.9023 2.2031 3.4219 2.2031 1.5234 0 2.832-0.90234 3.4258-2.2031zm10.652 0c0.59766 1.3008 1.9062 2.2031 3.4258 2.2031 1.5234 0 2.832-0.90234 3.4258-2.2031zm10.656 0c0.59375 1.3008 1.9062 2.2031 3.4258 2.2031 1.5195 0 2.832-0.90234 3.4258-2.2031zm21.375 0c0.59375 1.3008 1.9023 2.2031 3.4258 2.2031 1.5195 0 2.8281-0.90234 3.4258-2.2031zm10.652 0c0.59766 1.3008 1.9062 2.2031 3.4297 2.2031 1.5195 0 2.8281-0.90234 3.4219-2.2031zm10.656 0c0.59766 1.3008 1.9062 2.2031 3.4297 2.2031 1.5195 0 2.8281-0.90234 3.4219-2.2031zm-18.523-9.0234h8.1289v-16h-8.1289zm-6.5703-17.562c0-0.85938-0.69922-1.5625-1.5625-1.5625h-9.5625c-0.86328 0-1.5625 0.70312-1.5625 1.5625v9.5625c0 0.86328 0.69922 1.5625 1.5625 1.5625h9.5625c0.86328 0 1.5625-0.69922 1.5625-1.5625zm-16.102 0c0-0.85938-0.70312-1.5625-1.5625-1.5625h-9.5625c-0.86328 0-1.5625 0.70312-1.5625 1.5625v9.5625c0 0.86328 0.69922 1.5625 1.5625 1.5625h9.5625c0.85938 0 1.5625-0.69922 1.5625-1.5625zm-16.105 0c0-0.85938-0.69922-1.5625-1.5625-1.5625h-9.5625c-0.86328 0-1.5625 0.70312-1.5625 1.5625v9.5625c0 0.86328 0.69922 1.5625 1.5625 1.5625h9.5625c0.86328 0 1.5625-0.69922 1.5625-1.5625zm66.949 1.5625h-9.7812l3.7422 6.1445c1.1562 1.9023 3.2188 3.0586 5.4453 3.0586h5.7266l-0.11719-0.375c-1.0586-3.3398-2.7891-6.3281-5.0156-8.8281zm-53.969 0v6.4375h-6.4375v-6.4375zm16.102 0v6.4375h-6.4375v-6.4375zm-32.207 0v6.4375h-6.4375v-6.4375z" fill-rule="evenodd"/>
<text x="0.0" y="117.5" font-size="5.0" font-weight="bold" font-family="Arbeit Regular, Helvetica, Arial-Unicode, Arial, Sans-serif" fill="#000000">Created by rendicon</text><text x="0.0" y="122.5" font-size="5.0" font-weight="bold" font-family="Arbeit Regular, Helvetica, Arial-Unicode, Arial, Sans-serif" fill="#000000">from Noun Project</text></svg>