<?xml version="1.0" encoding="UTF-8" standalone="no"?>
<!DOCTYPE svg PUBLIC "-//W3C//DTD SVG 1.1//EN" "http://www.w3.org/Graphics/SVG/1.1/DTD/svg11.dtd">
<svg width="100%" viewBox="0 0 1200 160" version="1.1" xmlns="http://www.w3.org/2000/svg" xmlns:xlink="http://www.w3.org/1999/xlink" xml:space="preserve" xmlns:serif="http://www.serif.com/" style="fill-rule:evenodd;clip-rule:evenodd;stroke-linejoin:round;stroke-miterlimit:2;">
    <g id="tamarack-junction-map" transform="matrix(0.999995,0,0,0.266667,-839.996,0)">
        <rect x="840" y="0" width="1200" height="600" style="fill:none;"/>
        <clipPath id="_clip1">
            <rect x="840" y="0" width="1200" height="600"/>
        </clipPath>
        <g clip-path="url(#_clip1)">
            <g id="Background" transform="matrix(2.00001,0,0,3.75,-9.39607,-405.38)">
                <clipPath id="_clip2">
                    <rect x="0" y="0" width="1034.54" height="268.101"/>
                </clipPath>
                <g clip-path="url(#_clip2)">
                    <rect x="0" y="0" width="1024" height="600"/>
                </g>
            </g>
            <g id="Mainline" transform="matrix(1,0,0,3.75,1024,-447.036)">
                <g id="Labels">
                </g>
                <g id="TurnoutLabels" transform="matrix(1,0,0,1,-184,119.209)">
                    <g id="lbl102" transform="matrix(1,0,0,1,-452.771,-200.598)">
                        <g transform="matrix(0.51085,0,0,0.51085,781.252,155.716)">
                            <path d="M115.162,180.001C116.382,180.012 117.599,180.104 118.805,180.288C121.039,180.63 123.225,181.278 125.284,182.21C127.756,183.328 130.041,184.852 132.027,186.701C134.081,188.614 135.813,190.871 137.124,193.354C138.244,195.477 139.055,197.762 139.522,200.117C140.058,202.818 140.144,205.609 139.779,208.338C139.438,210.885 138.701,213.376 137.599,215.698C136.329,218.373 134.58,220.816 132.461,222.885C130.231,225.062 127.597,226.819 124.727,228.034C121.707,229.312 118.441,229.979 115.162,229.999C111.876,230.02 108.596,229.395 105.554,228.151C102.668,226.971 100.012,225.245 97.755,223.093C95.613,221.051 93.835,218.63 92.533,215.971C91.405,213.666 90.637,211.189 90.265,208.65C89.873,205.976 89.915,203.237 90.391,200.577C90.805,198.259 91.552,196.002 92.6,193.893C93.851,191.377 95.529,189.078 97.539,187.115C99.551,185.151 101.892,183.527 104.44,182.337C106.484,181.381 108.659,180.707 110.885,180.338C112.086,180.138 113.299,180.032 114.516,180.005C114.731,180.001 114.946,180 115.162,180.001ZM114.856,182.8C113.819,182.81 112.783,182.885 111.756,183.035C109.726,183.333 107.739,183.915 105.87,184.761C103.593,185.791 101.496,187.209 99.687,188.933C97.881,190.655 96.367,192.679 95.229,194.9C94.298,196.716 93.621,198.66 93.224,200.662C92.739,203.108 92.67,205.636 93.016,208.106C93.332,210.362 93.999,212.566 94.989,214.618C96.151,217.028 97.751,219.221 99.687,221.067C101.691,222.978 104.05,224.511 106.614,225.559C109.314,226.664 112.227,227.218 115.144,227.2C118.055,227.181 120.954,226.59 123.636,225.456C126.185,224.377 128.524,222.815 130.505,220.882C132.419,219.012 133.994,216.8 135.126,214.375C136.092,212.308 136.733,210.092 137.021,207.829C137.336,205.356 137.236,202.83 136.721,200.391C136.29,198.353 135.568,196.379 134.584,194.543C133.407,192.344 131.856,190.348 130.021,188.66C128.214,186.998 126.133,185.636 123.884,184.651C122.001,183.827 120.004,183.269 117.967,182.997C116.936,182.859 115.897,182.797 114.856,182.8Z" style="fill:none;fill-rule:nonzero;stroke:rgb(255,0,201);stroke-width:1.96px;"/>
                        </g>
                        <g transform="matrix(1,0,0,1,-11.0683,5.39181)">
                            <text x="843.185px" y="259.231px" style="font-family:'Futura-Medium', 'Futura', sans-serif;font-weight:500;font-size:13px;fill:white;">B2</text>
                        </g>
                    </g>
                    <g id="lbl101" transform="matrix(1,0,0,1,-492.771,-159.478)">
                        <g transform="matrix(0.51085,0,0,0.51085,781.252,155.716)">
                            <path d="M115.162,180.001C116.382,180.012 117.599,180.104 118.805,180.288C121.039,180.63 123.225,181.278 125.284,182.21C127.756,183.328 130.041,184.852 132.027,186.701C134.081,188.614 135.813,190.871 137.124,193.354C138.244,195.477 139.055,197.762 139.522,200.117C140.058,202.818 140.144,205.609 139.779,208.338C139.438,210.885 138.701,213.376 137.599,215.698C136.329,218.373 134.58,220.816 132.461,222.885C130.231,225.062 127.597,226.819 124.727,228.034C121.707,229.312 118.441,229.979 115.162,229.999C111.876,230.02 108.596,229.395 105.554,228.151C102.668,226.971 100.012,225.245 97.755,223.093C95.613,221.051 93.835,218.63 92.533,215.971C91.405,213.666 90.637,211.189 90.265,208.65C89.873,205.976 89.915,203.237 90.391,200.577C90.805,198.259 91.552,196.002 92.6,193.893C93.851,191.377 95.529,189.078 97.539,187.115C99.551,185.151 101.892,183.527 104.44,182.337C106.484,181.381 108.659,180.707 110.885,180.338C112.086,180.138 113.299,180.032 114.516,180.005C114.731,180.001 114.946,180 115.162,180.001ZM114.856,182.8C113.819,182.81 112.783,182.885 111.756,183.035C109.726,183.333 107.739,183.915 105.87,184.761C103.593,185.791 101.496,187.209 99.687,188.933C97.881,190.655 96.367,192.679 95.229,194.9C94.298,196.716 93.621,198.66 93.224,200.662C92.739,203.108 92.67,205.636 93.016,208.106C93.332,210.362 93.999,212.566 94.989,214.618C96.151,217.028 97.751,219.221 99.687,221.067C101.691,222.978 104.05,224.511 106.614,225.559C109.314,226.664 112.227,227.218 115.144,227.2C118.055,227.181 120.954,226.59 123.636,225.456C126.185,224.377 128.524,222.815 130.505,220.882C132.419,219.012 133.994,216.8 135.126,214.375C136.092,212.308 136.733,210.092 137.021,207.829C137.336,205.356 137.236,202.83 136.721,200.391C136.29,198.353 135.568,196.379 134.584,194.543C133.407,192.344 131.856,190.348 130.021,188.66C128.214,186.998 126.133,185.636 123.884,184.651C122.001,183.827 120.004,183.269 117.967,182.997C116.936,182.859 115.897,182.797 114.856,182.8Z" style="fill:none;fill-rule:nonzero;stroke:rgb(255,0,201);stroke-width:1.96px;"/>
                        </g>
                        <g transform="matrix(1,0,0,1,-9.7753,6.33713)">
                            <text x="843.185px" y="259.231px" style="font-family:'Futura-Medium', 'Futura', sans-serif;font-weight:500;font-size:13px;fill:white;">B1</text>
                        </g>
                    </g>
                </g>
                <g id="Lines">
                    <g transform="matrix(2.04231,0,0,2.04231,51.7196,-494.329)">
                        <path d="M100,320L60.906,359.094" style="fill:none;stroke:rgb(204,51,159);stroke-width:0.49px;stroke-miterlimit:1.5;"/>
                    </g>
                    <g transform="matrix(1.09804,0,0,1.14872,-144,147.312)">
                        <path d="M0,80L1020,80" style="fill:none;stroke:rgb(13,242,40);stroke-width:0.89px;stroke-miterlimit:1.5;"/>
                    </g>
                    <g transform="matrix(0.745098,0,0,1.24677,216,99.4679)">
                        <path d="M0,80L1020,80" style="fill:none;stroke:rgb(204,51,159);stroke-width:0.97px;stroke-miterlimit:1.5;"/>
                    </g>
                    <g transform="matrix(0.705882,0,0,1.18115,256,64.7174)">
                        <path d="M0,80L1020,80" style="fill:none;stroke:rgb(204,51,159);stroke-width:1.03px;stroke-miterlimit:1.5;"/>
                    </g>
                </g>
                <g id="Turnouts">
                    <g id="_101" serif:id="101" transform="matrix(1,0,0,1,-679.892,-120.791)">
                        <g transform="matrix(1.31059,0,0,1,-1608.02,-2.27374e-13)">
                            <path d="M1880,360L1901.75,360" style="fill:none;stroke:rgb(129,128,128);stroke-width:2.57px;stroke-miterlimit:1.5;"/>
                        </g>
                        <g transform="matrix(1,0,0,1,-1024,0)">
                            <path d="M1880,360L1900.16,339.842" style="fill:none;stroke:rgb(129,128,128);stroke-width:3px;stroke-miterlimit:1.5;"/>
                        </g>
                    </g>
                    <g id="_102" serif:id="102" transform="matrix(1,0,0,1,-639.892,-160.791)">
                        <g transform="matrix(1.31059,0,0,1,-1608.02,-2.27374e-13)">
                            <path d="M1880,360L1901.75,360" style="fill:none;stroke:rgb(129,128,128);stroke-width:2.57px;stroke-miterlimit:1.5;"/>
                        </g>
                        <g transform="matrix(1,0,0,1,-1024,0)">
                            <path d="M1880,360L1900.16,339.842" style="fill:none;stroke:rgb(129,128,128);stroke-width:3px;stroke-miterlimit:1.5;"/>
                        </g>
                    </g>
                </g>
                <g id="Routes" transform="matrix(1,0,0,1,-1024,0)">
                    <g id="MAINE" transform="matrix(1,0,0,1,-21.802,-240.791)">
                        <g transform="matrix(2.27167,0,0,1,-2017.68,0.156067)">
                            <path d="M1622.1,476.089C1622.1,474.017 1621.36,472.335 1620.44,472.335L1583.79,472.335C1582.88,472.335 1582.13,474.017 1582.13,476.089L1582.13,483.599C1582.13,485.671 1582.88,487.353 1583.79,487.353L1620.44,487.353C1621.36,487.353 1622.1,485.671 1622.1,483.599L1622.1,476.089Z" style="fill-opacity:0.87;stroke:rgb(255,1,0);stroke-opacity:0.68;stroke-width:0.57px;stroke-miterlimit:1.5;"/>
                        </g>
                        <g transform="matrix(1,0,0,1,-14.5098,4.58862)">
                            <text x="1599.77px" y="480.039px" style="font-family:'Futura-Medium', 'Futura', sans-serif;font-weight:500;font-size:13px;fill:white;">MAIN EAS<tspan x="1665.46px " y="480.039px ">T</tspan></text>
                        </g>
                    </g>
                    <g id="SPUR2" transform="matrix(1,0,0,1,-21.802,-320.791)">
                        <g transform="matrix(1.45895,0,0,1,-715.824,0.156067)">
                            <path d="M1622.1,476.089C1622.1,474.017 1620.94,472.335 1619.52,472.335L1584.71,472.335C1583.29,472.335 1582.13,474.017 1582.13,476.089L1582.13,483.599C1582.13,485.671 1583.29,487.353 1584.71,487.353L1619.52,487.353C1620.94,487.353 1622.1,485.671 1622.1,483.599L1622.1,476.089Z" style="fill-opacity:0.87;stroke:rgb(255,1,0);stroke-opacity:0.68;stroke-width:0.8px;stroke-miterlimit:1.5;"/>
                        </g>
                        <g transform="matrix(1,0,0,1,1.51155,4.58862)">
                            <text x="1599.77px" y="480.039px" style="font-family:'Futura-Medium', 'Futura', sans-serif;font-weight:500;font-size:13px;fill:white;">SPUR 2</text>
                        </g>
                    </g>
                    <g id="MAINW" transform="matrix(1,0,0,1,-582.255,-240.791)">
                        <g transform="matrix(2.283,0,0,1,-2035.38,0.156067)">
                            <path d="M1622.1,476.089C1622.1,474.017 1621.36,472.335 1620.45,472.335L1583.78,472.335C1582.87,472.335 1582.13,474.017 1582.13,476.089L1582.13,483.599C1582.13,485.671 1582.87,487.353 1583.78,487.353L1620.45,487.353C1621.36,487.353 1622.1,485.671 1622.1,483.599L1622.1,476.089Z" style="fill-opacity:0.87;stroke:rgb(255,1,0);stroke-opacity:0.68;stroke-width:0.57px;stroke-miterlimit:1.5;"/>
                        </g>
                        <g transform="matrix(1,0,0,1,-14.2833,4.58862)">
                            <text x="1599.77px" y="480.039px" style="font-family:'Futura-Medium', 'Futura', sans-serif;font-weight:500;font-size:13px;fill:white;">MAIN WES<tspan x="1669.62px " y="480.039px ">T</tspan></text>
                        </g>
                    </g>
                    <g id="SPUR1" transform="matrix(1,0,0,1,-21.802,-280.869)">
                        <g transform="matrix(1.45895,0,0,1,-715.824,0.234954)">
                            <path d="M1622.1,476.089C1622.1,474.017 1620.94,472.335 1619.52,472.335L1584.71,472.335C1583.29,472.335 1582.13,474.017 1582.13,476.089L1582.13,483.599C1582.13,485.671 1583.29,487.353 1584.71,487.353L1619.52,487.353C1620.94,487.353 1622.1,485.671 1622.1,483.599L1622.1,476.089Z" style="fill-opacity:0.87;stroke:rgb(255,1,0);stroke-opacity:0.68;stroke-width:0.8px;stroke-miterlimit:1.5;"/>
                        </g>
                        <g transform="matrix(1,0,0,1,1.51155,4.6675)">
                            <text x="1599.77px" y="480.039px" style="font-family:'Futura-Medium', 'Futura', sans-serif;font-weight:500;font-size:13px;fill:white;">SPUR 1</text>
                        </g>
                    </g>
                </g>
                <g id="Overlays">
                </g>
            </g>
        </g>
    </g>
</svg>
