<?xml version="1.0" encoding="UTF-8" standalone="no"?>
<!DOCTYPE svg PUBLIC "-//W3C//DTD SVG 1.0//EN" "http://www.w3.org/TR/2001/REC-SVG-20010904/DTD/svg10.dtd">
<!-- Created with Inkscape (http://www.inkscape.org/) -->
<svg
   xmlns:svg="http://www.w3.org/2000/svg"
   xmlns="http://www.w3.org/2000/svg"
   version="1.0"
   width="800"
   height="800"
   id="svg2">
  <defs
     id="defs4" />
  <path
     d="M 450.00066,435.2681 A 69.410851,69.410851 0 1 1 311.17896,435.2681 A 69.410851,69.410851 0 1 1 450.00066,435.2681 z"
     transform="matrix(5.2940807,0,0,5.2940807,-1616.5025,-1907.267)"
     id="path4239"
     style="opacity:1;fill:#ffffff;fill-opacity:1;fill-rule:nonzero;stroke:#111074;stroke-width:8.15046215;stroke-linecap:square;stroke-linejoin:round;stroke-miterlimit:4;stroke-dasharray:none;stroke-opacity:1" />
  <path
     d="M 275.034,47.91669 L 275.034,273.60726 L 43.612671,273.60726 L 43.612671,520.53535 L 275.034,520.53535 L 275.034,749.09131 L 521.79351,749.09131 L 521.79351,520.53535 L 744.78726,520.53535 L 744.78726,273.60726 L 521.79351,273.60726 L 521.79351,47.91669 L 275.034,47.91669 z"
     id="rect4241"
     style="opacity:1;fill:#111074;fill-opacity:1;fill-rule:nonzero;stroke:none;stroke-width:8;stroke-linecap:square;stroke-linejoin:round;stroke-miterlimit:4;stroke-dasharray:none;stroke-opacity:1" />
  <path
     d="M 153.03895,314.10667 L 154.18325,364.30378 L 149.91828,364.30378 C 147.90709,351.71759 142.96596,341.59308 135.09501,333.93012 C 127.22385,326.26743 118.7113,322.436 109.55731,322.43583 C 102.48367,322.436 96.883769,324.45347 92.757551,328.48837 C 88.631284,332.52355 86.568148,337.16936 86.568202,342.42586 C 86.568148,345.75761 87.296296,348.71909 88.7527,351.31031 C 90.763739,354.79014 93.988447,358.23285 98.426828,361.63845 C 101.68619,364.08175 109.21048,368.41297 120.99984,374.63198 C 137.50476,383.29435 148.63523,391.47544 154.39127,399.17524 C 160.07777,406.87516 162.92105,415.68555 162.92115,425.60646 C 162.92105,438.19278 158.32669,449.0207 149.13808,458.09018 C 139.94933,467.15971 128.28139,471.69451 114.13433,471.69451 C 109.69595,471.69451 105.50036,471.21322 101.54755,470.25077 C 97.594588,469.28832 92.636183,467.47437 86.672234,464.80903 C 83.34344,463.32834 80.604199,462.58797 78.454409,462.58791 C 76.65129,462.58797 74.744235,463.32834 72.733094,464.80903 C 70.722001,466.28977 69.092293,468.54795 67.844014,471.58344 L 63.995191,471.58344 L 63.995191,414.72298 L 67.844014,414.72298 C 70.895358,430.71506 76.772658,442.91265 85.47595,451.31582 C 94.179188,459.719 103.55859,463.92063 113.6142,463.92058 C 121.38122,463.92063 127.57057,461.66246 132.18236,457.14623 C 136.79394,452.62999 139.09981,447.37332 139.09986,441.37635 C 139.09981,437.82257 138.21558,434.37985 136.44727,431.04816 C 134.67881,427.71657 131.99157,424.55144 128.38548,421.5529 C 124.77928,418.55447 118.39919,414.64903 109.24525,409.83653 C 96.415687,403.09923 87.192312,397.3614 81.575083,392.62297 C 75.957801,387.88465 71.640842,382.59104 68.624205,376.74202 C 65.60752,370.89317 64.099175,364.45197 64.099175,357.41836 C 64.099175,345.42446 68.225442,335.20739 76.477932,326.76699 C 84.730418,318.32692 95.132742,314.10683 107.68491,314.10667 C 112.26183,314.10683 116.70016,314.69913 120.99984,315.88356 C 124.25916,316.77217 128.2294,318.41949 132.91051,320.82552 C 137.59146,323.23188 140.86817,324.43497 142.74066,324.43486 C 144.54368,324.43497 145.96532,323.84268 147.00563,322.65797 C 148.04578,321.47349 149.01667,318.62307 149.91828,314.10667 L 153.03895,314.10667 z M 219.07341,452.81507 C 207.21473,463.99465 196.56972,469.58446 187.13833,469.58446 C 181.59037,469.58446 176.97868,467.641 173.30322,463.754 C 169.62776,459.86707 167.78998,454.99918 167.79003,449.15022 C 167.78998,441.22827 170.98002,434.10221 177.36012,427.77202 C 183.74021,421.44189 197.64459,413.02021 219.07341,402.50688 L 219.07341,392.06768 C 219.07336,384.21985 218.67459,379.27784 217.87712,377.24175 C 217.0796,375.20583 215.57125,373.42893 213.35214,371.91108 C 211.13293,370.39344 208.63637,369.63457 205.86247,369.63446 C 201.35477,369.63457 197.64459,370.70809 194.73199,372.85509 C 192.92892,374.18781 192.02736,375.74262 192.02741,377.5194 C 192.02736,379.07426 192.99824,380.99923 194.94007,383.29429 C 197.57527,386.47797 198.89287,389.55047 198.89292,392.5119 C 198.89287,396.1398 197.62726,399.23081 195.09609,401.78502 C 192.56482,404.33939 189.2534,405.6165 185.16185,405.61645 C 180.7929,405.6165 177.13471,404.20982 174.18745,401.39636 C 171.24009,398.583 169.76646,395.28836 169.76646,391.51238 C 169.76646,386.18182 171.74288,381.09179 175.69575,376.24224 C 179.6486,371.39296 185.16185,367.6726 192.23543,365.08116 C 199.30896,362.49 206.65994,361.19434 214.28836,361.19422 C 223.51168,361.19434 230.81061,363.28588 236.18522,367.46885 C 241.55966,371.65204 245.04444,376.18684 246.63953,381.07318 C 247.61032,384.1828 248.09578,391.32736 248.09589,402.50688 L 248.09589,442.82003 C 248.09578,447.55846 248.26915,450.53845 248.61597,451.76005 C 248.96263,452.98165 249.48276,453.8886 250.17636,454.48089 C 250.86974,455.07319 251.66721,455.36934 252.56888,455.36934 C 254.37184,455.36934 256.20958,453.99966 258.08207,451.26026 L 261.2028,453.9256 C 257.73525,459.40434 254.14644,463.38385 250.43637,465.86411 C 246.72614,468.34431 242.51321,469.58446 237.7976,469.58446 C 232.24959,469.58446 227.9153,468.19623 224.79468,465.41988 C 221.67395,462.64348 219.76685,458.44189 219.07341,452.81507 L 219.07341,452.81507 z M 219.07341,444.70799 L 219.07341,409.9476 C 210.68217,415.20432 204.44078,420.83109 200.34927,426.82807 C 197.64459,430.82607 196.29233,434.86108 196.29233,438.93309 C 196.29233,442.33886 197.43657,445.33735 199.72511,447.92862 C 201.4588,449.92765 203.88598,450.92711 207.00671,450.92711 C 210.4741,450.92711 214.49633,448.85407 219.07341,444.70799 L 219.07341,444.70799 z M 306.31995,364.30378 L 306.31995,377.74154 C 311.31296,371.96669 316.09806,367.76511 320.67514,365.13672 C 325.25205,362.5085 330.17585,361.19434 335.44641,361.19422 C 341.75708,361.19434 346.99288,363.06379 351.15391,366.80254 C 355.31474,370.54151 358.08869,375.18732 359.47572,380.74003 C 360.5852,384.96023 361.13999,393.06725 361.1401,405.06115 L 361.1401,445.48536 C 361.13999,453.48137 361.81615,458.46039 363.16857,460.42236 C 364.52078,462.38433 367.34673,463.62449 371.64646,464.14272 L 371.64646,468.14072 L 322.44349,468.14072 L 322.44349,464.14272 C 326.1189,463.62449 328.75416,461.99567 330.34926,459.25627 C 331.45879,457.40537 332.01358,452.81507 332.01363,445.48536 L 332.01363,399.28626 C 332.01358,390.77213 331.70147,385.40445 331.07741,383.18322 C 330.45324,380.96222 329.39566,379.24084 327.90474,378.01913 C 326.41368,376.79764 324.76664,376.18684 322.96362,376.18673 C 316.99957,376.18684 311.45166,380.74008 306.31995,389.84657 L 306.31995,445.48536 C 306.3199,453.25929 306.996,458.18275 308.34837,460.25578 C 309.70063,462.32882 312.21452,463.62449 315.89004,464.14272 L 315.89004,468.14072 L 266.68712,468.14072 L 266.68712,464.14272 C 270.77868,463.6985 273.69133,462.29182 275.42508,459.92263 C 276.60398,458.29382 277.19343,453.48137 277.19343,445.48536 L 277.19343,386.84807 C 277.19343,379.00025 276.51727,374.1138 275.16501,372.18872 C 273.8127,370.26387 270.9867,369.00521 266.68712,368.41286 L 266.68712,364.30378 L 306.31995,364.30378 z M 411.76037,326.32277 L 411.76037,364.30378 L 434.85351,364.30378 L 434.85351,375.29828 L 411.76037,375.29828 L 411.76037,439.37732 C 411.76032,445.37435 412.02038,449.24279 412.54056,450.98262 C 413.06059,452.7225 413.97948,454.12923 415.29713,455.20276 C 416.61474,456.27628 417.82835,456.81308 418.93793,456.81308 C 423.44559,456.81308 427.7105,453.14822 431.73278,445.81857 L 434.85351,448.26177 C 429.23617,462.4769 420.11684,469.58446 407.4954,469.58446 C 401.32333,469.58446 396.10486,467.75201 391.83995,464.08721 C 387.57498,460.42236 384.85302,456.33184 383.67411,451.81555 C 382.98062,449.29829 382.63385,442.48693 382.63391,431.38131 L 382.63391,375.29828 L 369.94304,375.29828 L 369.94304,371.41135 C 394.46899,366.56469 403.5747,348.07697 408.32759,326.32277 L 411.76037,326.32277 z M 496.66199,452.81507 C 484.80331,463.99465 474.1583,469.58446 464.72691,469.58446 C 459.17901,469.58446 454.56732,467.641 450.89186,463.754 C 447.21634,459.86707 445.37861,454.99918 445.37861,449.15022 C 445.37861,441.22827 448.56866,434.10221 454.94875,427.77202 C 461.32879,421.44189 475.23323,413.02021 496.66199,402.50688 L 496.66199,392.06768 C 496.66194,384.21985 496.26318,379.27784 495.46576,377.24175 C 494.66818,375.20583 493.15984,373.42893 490.94072,371.91108 C 488.72151,370.39344 486.22495,369.63457 483.45105,369.63446 C 478.94335,369.63457 475.23323,370.70809 472.32063,372.85509 C 470.5175,374.18781 469.61594,375.74262 469.616,377.5194 C 469.61594,379.07426 470.58683,380.99923 472.52864,383.29429 C 475.16385,386.47797 476.4815,389.55047 476.4815,392.5119 C 476.4815,396.1398 475.2159,399.23081 472.68468,401.78502 C 470.1534,404.33939 466.84204,405.6165 462.75048,405.61645 C 458.38148,405.6165 454.72335,404.20982 451.77604,401.39636 C 448.82867,398.583 447.35504,395.28836 447.35504,391.51238 C 447.35504,386.18182 449.33147,381.09179 453.28438,376.24224 C 457.23724,371.39296 462.75043,367.6726 469.82407,365.08116 C 476.8976,362.49 484.24852,361.19434 491.87695,361.19422 C 501.10028,361.19434 508.39919,363.28588 513.7738,367.46885 C 519.14825,371.65204 522.63303,376.18684 524.2281,381.07318 C 525.19895,384.1828 525.68438,391.32736 525.68449,402.50688 L 525.68449,442.82003 C 525.68438,447.55846 525.85773,450.53845 526.2046,451.76005 C 526.5512,452.98165 527.07136,453.8886 527.76493,454.48089 C 528.45834,455.07319 529.25584,455.36934 530.15745,455.36934 C 531.96043,455.36934 533.79816,453.99966 535.67073,451.26026 L 538.79139,453.9256 C 535.32381,459.40434 531.73509,463.38385 528.02501,465.86411 C 524.31472,468.34431 520.10179,469.58446 515.38618,469.58446 C 509.83821,469.58446 505.50393,468.19623 502.38333,465.41988 C 499.26256,462.64348 497.35543,458.44189 496.66199,452.81507 L 496.66199,452.81507 z M 496.66199,444.70799 L 496.66199,409.9476 C 488.27076,415.20432 482.02936,420.83109 477.93786,426.82807 C 475.23323,430.82607 473.88091,434.86108 473.88096,438.93309 C 473.88091,442.33886 475.02515,445.33735 477.31369,447.92862 C 479.04738,449.92765 481.47457,450.92711 484.59535,450.92711 C 488.06274,450.92711 492.08492,448.85407 496.66199,444.70799 L 496.66199,444.70799 z M 604.81275,326.21175 L 604.81275,388.06967 L 608.86963,388.06967 C 615.11095,388.06973 620.20806,387.07027 624.16101,385.07118 C 628.11386,383.07226 631.45992,379.70356 634.19924,374.96513 C 636.93846,370.22686 638.72419,363.82267 639.55649,355.75254 L 643.19725,355.75254 L 643.19725,431.38131 L 639.55649,431.38131 C 638.23876,417.09223 634.64994,407.67104 628.79011,403.11769 C 622.93002,398.5645 616.28989,396.28788 608.86963,396.28777 L 604.81275,396.28777 L 604.81275,442.3758 C 604.81269,450.07572 605.21144,454.88811 606.009,456.81308 C 606.80645,458.73804 608.36684,460.42236 610.6901,461.8661 C 613.0132,463.30978 616.15117,464.03165 620.10412,464.03165 L 624.78522,464.03165 L 624.78522,468.14072 L 551.03282,468.14072 L 551.03282,464.03165 L 555.71386,464.03165 C 559.80543,464.03165 563.09944,463.25428 565.59605,461.69952 C 567.39909,460.663 568.78607,458.88612 569.75693,456.36885 C 570.51975,454.59196 570.90119,449.92765 570.90124,442.3758 L 570.90124,343.3143 C 570.90119,335.61455 570.51975,330.80217 569.75693,328.87709 C 568.9941,326.95223 567.45103,325.26791 565.12793,323.82406 C 562.80473,322.38049 559.6667,321.65862 555.71386,321.65846 L 551.03282,321.65846 L 551.03282,317.54938 L 670.03525,317.54938 L 670.03525,360.75 L 665.77028,360.75 C 664.79931,350.60705 662.32007,343.09233 658.33265,338.20571 C 654.34496,333.31943 648.5717,329.87671 641.01277,327.87757 C 636.85179,326.76716 629.15408,326.21186 617.91964,326.21175 L 604.81275,326.21175 z M 746.04581,412.50187 L 692.68195,412.50187 C 693.30605,426.27283 696.73884,437.15626 702.98026,445.15221 C 707.76524,451.29732 713.52118,454.36982 720.24809,454.36982 C 724.40891,454.36982 728.18841,453.12972 731.58662,450.64946 C 734.98462,448.16926 738.62539,443.70853 742.50904,437.26727 L 746.04581,439.71053 C 740.77519,451.18625 734.94994,459.31184 728.5699,464.08721 C 722.18975,468.86259 714.80412,471.25028 706.413,471.25028 C 691.98843,471.25028 681.06602,465.32732 673.64571,453.48137 C 667.68173,443.93062 664.69969,432.08473 664.69974,417.94361 C 664.69969,400.61903 669.08602,386.82963 677.85863,376.57544 C 686.63125,366.32137 696.91219,361.19434 708.70152,361.19422 C 718.54898,361.19434 727.09619,365.50699 734.34321,374.13219 C 741.59007,382.75761 745.49092,395.54751 746.04581,412.50187 L 746.04581,412.50187 z M 720.45612,405.06115 C 720.45607,393.14126 719.84928,384.96023 718.63571,380.51789 C 717.42203,376.07577 715.53231,372.70707 712.96645,370.41183 C 711.51011,369.07928 709.56834,368.41297 707.14114,368.41286 C 703.535,368.41297 700.58769,370.30088 698.29922,374.07668 C 694.2076,380.66607 692.16179,389.69855 692.16184,401.17421 L 692.16184,405.06115 L 720.45612,405.06115 z"
     id="text4235"
     style="font-size:40.81146622px;font-style:normal;font-variant:normal;font-weight:bold;font-stretch:normal;text-align:start;line-height:100%;writing-mode:lr-tb;text-anchor:start;fill:#ffffff;fill-opacity:1;stroke:none;stroke-width:1px;stroke-linecap:butt;stroke-linejoin:miter;stroke-opacity:1;font-family:Times New Roman;-inkscape-font-specification:Times New Roman Bold" />
</svg>
