<?xml version="1.0" encoding="UTF-8" standalone="no"?>
<!-- Created with Inkscape (http://www.inkscape.org/) -->

<svg
   xmlns:dc="http://purl.org/dc/elements/1.1/"
   xmlns:cc="http://creativecommons.org/ns#"
   xmlns:rdf="http://www.w3.org/1999/02/22-rdf-syntax-ns#"
   xmlns:svg="http://www.w3.org/2000/svg"
   xmlns="http://www.w3.org/2000/svg"
   xmlns:sodipodi="http://sodipodi.sourceforge.net/DTD/sodipodi-0.dtd"
   xmlns:inkscape="http://www.inkscape.org/namespaces/inkscape"
   width="100%"
   height="100%"
   id="svg2"
   viewBox="0 0 200 32"
   version="1.1"
   preserveAspectRatio="true"
   inkscape:version="0.48.2 r9819"
   sodipodi:docname="New document 1">
  <defs
     id="defs4">
    <clipPath
       id="clipPath3065"
       clipPathUnits="userSpaceOnUse">
      <path
         id="path3067"
         d="m 297.014,318.672 0,-41.208 154.975,0 0,41.208"
         inkscape:connector-curvature="0" />
    </clipPath>
  </defs>
  <sodipodi:namedview
     id="base"
     pagecolor="#ffffff"
     bordercolor="#666666"
     borderopacity="1.0"
     inkscape:pageopacity="0.0"
     inkscape:pageshadow="2"
     inkscape:zoom="0.94316065"
     inkscape:cx="262.791"
     inkscape:cy="-84.536964"
     inkscape:document-units="px"
     inkscape:current-layer="g2993"
     showgrid="false"
     fit-margin-top="0"
     fit-margin-left="0"
     fit-margin-right="0"
     fit-margin-bottom="0"
     inkscape:window-width="1024"
     inkscape:window-height="553"
     inkscape:window-x="-4"
     inkscape:window-y="-4"
     inkscape:window-maximized="1" />
  <metadata
     id="metadata7">
    <rdf:RDF>
      <cc:Work
         rdf:about="">
        <dc:format>image/svg+xml</dc:format>
        <dc:type
           rdf:resource="http://purl.org/dc/dcmitype/StillImage" />
        <dc:title></dc:title>
      </cc:Work>
    </rdf:RDF>
  </metadata>
  <g
     inkscape:label="Layer 1"
     inkscape:groupmode="layer"
     id="layer1"
     transform="translate(-112.209,-215.9575)">
    <g
       transform="matrix(1.25,0,0,-1.25,25.965247,1112)"
       inkscape:label="proxy_2009_meeting"
       id="g2993">
      <g
         transform="translate(88.744,716.275)"
         id="g2995">
        <path
           id="path2997"
           style="fill:#f68429;fill-opacity:1;fill-rule:nonzero;stroke:none"
           d="m 0,0 18.283,0 c 8.121,0 10.502,-1.291 8.596,-3.678 -1.531,-1.917 -4.994,-2.817 -8.877,-3.267 l -0.031,-0.04 c 3.69,-0.117 6.557,-1.075 4.62,-3.501 -0.875,-1.095 -2.387,-2.015 -3.997,-2.545 -2.368,-0.781 -4.36,-1.094 -10.146,-1.094 l -19.729,0 L 0,0 z m 1.533,-10.99 4.097,0 c 3.632,0 5.144,0.36 6.017,1.454 0.876,1.096 0.055,1.64 -3.577,1.64 L 4.069,-7.914 1.533,-10.99 z m 4.336,5.444 3.868,0 c 3.045,0 4.464,0.632 5.165,1.507 0.743,0.932 0.552,1.279 -2.736,1.279 L 8.237,-2.727 5.869,-5.546"
           inkscape:connector-curvature="0" />
      </g>
      <g
         transform="translate(123.812,716.275)"
         id="g2999">
        <path
           id="path3001"
           style="fill:#f68429;fill-opacity:1;fill-rule:nonzero;stroke:none"
           d="m 0,0 16.327,0 1.433,-9.47 0.111,0 7.119,9.47 10.048,0 -11.16,-14.125 -15.814,0 -1.377,10.056 0.145,0 -7.945,-10.056 -10.049,0 L 0,0"
           inkscape:connector-curvature="0" />
      </g>
      <g
         transform="translate(167.799,706.689)"
         id="g3003">
        <path
           id="path3005"
           style="fill:#f68429;fill-opacity:1;fill-rule:nonzero;stroke:none"
           d="m 0,0 c -0.588,-0.783 -0.189,-1.273 0.219,-1.646 0.445,-0.371 1.665,-0.644 3.147,-0.644 2.02,0 4.995,0.281 5.584,1.019 0.204,0.254 0.042,0.878 -0.114,1.056 -0.803,0.9 -13.066,1.565 -15.334,3.228 -0.916,0.665 -0.563,1.663 0.076,2.465 2.469,3.091 8.881,4.667 19.598,4.667 11.385,0 13.581,-1.85 11.404,-4.765 l -10.688,0 c 0.55,0.783 0.272,1.348 -0.31,1.641 C 13.038,7.315 11.936,7.487 10.525,7.487 8.151,7.487 6.333,7.203 5.755,6.479 5.584,6.264 5.587,5.654 5.795,5.498 6.835,4.617 18.723,3.991 20.939,2.309 21.585,1.82 22.052,1.057 20.958,-0.314 18.724,-3.111 12.728,-5.023 0.527,-5.023 -14.012,-5.023 -12.999,-2.622 -11.13,0 L 0,0"
           inkscape:connector-curvature="0" />
      </g>
      <g
         transform="translate(201.93,716.275)"
         id="g3007">
        <path
           id="path3009"
           style="fill:#f68429;fill-opacity:1;fill-rule:nonzero;stroke:none"
           d="m 0,0 24.626,0 -2.696,-3.219 -13.011,0 -2.363,-2.69 12.682,0 -2.41,-3.084 -12.683,0 -4.226,-5.132 -11.2,0 L 0,0"
           inkscape:connector-curvature="0" />
      </g>
      <g
         transform="translate(212.96,698.273)"
         id="g3011">
        <path
           id="path3013"
           style="fill:#231f20;fill-opacity:1;fill-rule:nonzero;stroke:none"
           d="m 0,0 -143.965,-6.768 6.173,7.788 138.605,0 L 0,0"
           inkscape:connector-curvature="0" />
      </g>
      <g
         transform="translate(229.156,715.993)"
         id="g3015">
        <path
           id="path3017"
           style="fill:#231f20;fill-opacity:1;fill-rule:nonzero;stroke:none"
           d="M 0,0 C 0.243,0 0.48,-0.063 0.713,-0.188 0.944,-0.313 1.126,-0.492 1.254,-0.725 1.383,-0.957 1.449,-1.2 1.449,-1.453 1.449,-1.703 1.384,-1.944 1.257,-2.174 1.13,-2.405 0.952,-2.584 0.722,-2.711 0.492,-2.839 0.25,-2.903 0,-2.903 c -0.251,0 -0.493,0.064 -0.722,0.192 -0.229,0.127 -0.408,0.306 -0.537,0.537 -0.128,0.23 -0.192,0.471 -0.192,0.721 0,0.253 0.065,0.496 0.196,0.728 0.129,0.233 0.31,0.412 0.543,0.537 C -0.481,-0.063 -0.245,0 0,0 z m 0,-0.241 c -0.204,0 -0.402,-0.053 -0.593,-0.157 -0.193,-0.105 -0.344,-0.254 -0.454,-0.447 -0.109,-0.196 -0.163,-0.397 -0.163,-0.608 0,-0.209 0.053,-0.41 0.16,-0.6 0.107,-0.192 0.257,-0.342 0.449,-0.449 0.191,-0.107 0.392,-0.16 0.601,-0.16 0.208,0 0.41,0.053 0.601,0.16 0.191,0.107 0.341,0.257 0.448,0.449 0.107,0.19 0.16,0.391 0.16,0.6 0,0.211 -0.054,0.412 -0.163,0.608 C 0.938,-0.652 0.787,-0.503 0.592,-0.398 0.401,-0.294 0.203,-0.241 0,-0.241 z m -0.636,-2.014 0,1.563 0.537,0 c 0.182,0 0.317,-0.015 0.398,-0.043 0.084,-0.029 0.149,-0.08 0.198,-0.151 C 0.546,-0.958 0.57,-1.035 0.57,-1.115 0.57,-1.229 0.53,-1.328 0.447,-1.413 0.366,-1.498 0.255,-1.545 0.121,-1.555 0.176,-1.579 0.221,-1.606 0.252,-1.639 0.317,-1.7 0.394,-1.803 0.485,-1.948 l 0.19,-0.307 -0.307,0 -0.139,0.247 c -0.109,0.194 -0.196,0.315 -0.265,0.363 -0.046,0.037 -0.112,0.054 -0.202,0.054 l -0.147,0 0,-0.664 -0.251,0 z m 0.251,0.879 0.307,0 c 0.148,0 0.247,0.021 0.302,0.065 0.053,0.044 0.079,0.102 0.079,0.173 0,0.047 -0.012,0.088 -0.038,0.125 -0.025,0.036 -0.061,0.063 -0.107,0.081 -0.046,0.019 -0.131,0.028 -0.254,0.028 l -0.289,0 0,-0.472"
           inkscape:connector-curvature="0" />
      </g>
    </g>
  </g>
</svg>
