<?xml version="1.0" encoding="utf-8"?>
<!-- Generator: Adobe Illustrator 16.0.3, SVG Export Plug-In . SVG Version: 6.00 Build 0)  -->
<!DOCTYPE svg PUBLIC "-//W3C//DTD SVG 1.1//EN" "http://www.w3.org/Graphics/SVG/1.1/DTD/svg11.dtd">
<svg version="1.1" id="Layer_1" xmlns="http://www.w3.org/2000/svg" xmlns:xlink="http://www.w3.org/1999/xlink" x="0px" y="0px"
	 width="239.561px" height="41.367px" viewBox="0 0 239.561 41.367" enable-background="new 0 0 239.561 41.367"
	 xml:space="preserve">
<path fill="#CF0A2C" d="M41.367,20.683c0,11.422-9.262,20.684-20.684,20.684C9.259,41.367,0,32.105,0,20.683
	C0,9.26,9.259,0,20.683,0C32.105,0,41.367,9.26,41.367,20.683"/>
<polygon fill="#FFFFFF" points="3.785,11.714 14.339,32.55 23.407,32.55 12.897,11.714 "/>
<polygon fill="#FFFFFF" points="20.66,11.714 16.184,11.714 26.695,32.55 31.222,32.55 31.158,32.478 "/>
<path fill="#FFFFFF" d="M28.392,14.165V12.48h2.404L28.392,14.165z M25.596,11.67v2.722c0.022,0.424,0.187,0.733,0.626,0.932
	l0.408,0.572l0.646-0.883c0.378-0.146,0.604-0.24,1.106-0.074c0.709,0.237,0.821,1.145,0.898,1.853l-0.012,0.196H27.15l-0.787,1.564
	h3.13l2.487-4.951l-0.748-1.543l1.751,1.148l-4.266,8.464l1.728,3.461l6.773-13.461H25.596z"/>
<polygon points="63.343,28.062 58.943,28.062 58.943,17.061 58.898,17.061 56.092,28.062 53.083,28.062 50.187,17.061 
	50.142,17.061 50.142,28.062 46.595,28.062 46.595,12.662 52.769,12.662 54.969,20.833 55.014,20.833 57.124,12.662 63.343,12.662 
	"/>
<path d="M69.854,22.269c0,3.076,0.741,3.301,1.549,3.301s1.549-0.225,1.549-3.301c0-1.1-0.022-3.098-1.549-3.098
	C69.877,19.171,69.854,21.169,69.854,22.269 M77.712,22.427c0,3.479-2.806,5.858-6.309,5.858c-3.502,0-6.308-2.38-6.308-5.858
	c0-3.683,2.716-6.063,6.308-6.063C74.995,16.365,77.712,18.745,77.712,22.427"/>
<path d="M79.037,16.589h4.198v1.617h0.045c0.539-1.303,1.864-1.842,3.255-1.842c1.078,0,2.313,0.314,2.986,1.189
	c0.719,0.944,0.719,2.246,0.719,3.436v7.072h-4.445v-6.961c0-0.695,0-1.66-0.966-1.66c-1.234,0-1.347,1.056-1.347,1.998v6.623
	h-4.445V16.589z"/>
<path d="M97.222,16.589h2.29v2.919h-2.245v3.951c0,0.831-0.09,1.481,0.965,1.481c0.427,0,0.853-0.09,1.28-0.201v3.209
	c-1.078,0.27-2.447,0.383-3.076,0.383c-1.033,0-1.998-0.383-2.762-1.212c-0.875-0.944-0.852-2.044-0.852-3.279v-4.332H91.16v-2.919
	h1.864l0.336-3.658l3.862-0.136V16.589z"/>
<path d="M108.087,22.697c-1.078,0.112-2.874,0.448-2.874,1.84c0,0.741,0.472,1.055,1.168,1.055c1.684,0,1.706-1.413,1.706-2.67
	V22.697z M108.47,28.062c-0.112-0.518-0.157-1.055-0.157-1.596c-0.898,1.326-2.178,1.82-3.749,1.82
	c-2.133,0-3.997-1.168-3.997-3.457c0-1.819,1.415-3.031,3.009-3.525c1.459-0.449,3.008-0.629,4.512-0.719v-0.09
	c0-1.033-0.269-1.437-1.347-1.437c-0.875,0-1.616,0.315-1.751,1.278l-4.086-0.381c0.673-2.851,3.39-3.592,5.972-3.592
	c1.347,0,3.076,0.18,4.198,0.988c1.504,1.055,1.325,2.537,1.325,4.175v4.019c0,0.854,0.022,1.707,0.359,2.516H108.47z"/>
<path d="M114.06,16.589h4.198v1.617h0.046c0.538-1.303,1.863-1.842,3.255-1.842c1.077,0,2.312,0.314,2.984,1.189
	c0.72,0.944,0.72,2.246,0.72,3.436v7.072h-4.445v-6.961c0-0.695,0-1.66-0.966-1.66c-1.234,0-1.347,1.056-1.347,1.998v6.623h-4.445
	V16.589z"/>
<path d="M134.13,22.697c-1.076,0.112-2.874,0.448-2.874,1.84c0,0.741,0.473,1.055,1.168,1.055c1.685,0,1.706-1.413,1.706-2.67
	V22.697z M134.513,28.062c-0.112-0.518-0.157-1.055-0.157-1.596c-0.898,1.326-2.179,1.82-3.749,1.82
	c-2.133,0-3.996-1.168-3.996-3.457c0-1.819,1.414-3.031,3.008-3.525c1.459-0.449,3.008-0.629,4.512-0.719v-0.09
	c0-1.033-0.269-1.437-1.346-1.437c-0.876,0-1.617,0.315-1.751,1.278l-4.087-0.381c0.674-2.851,3.39-3.592,5.972-3.592
	c1.348,0,3.075,0.18,4.198,0.988c1.504,1.055,1.324,2.537,1.324,4.175v4.019c0,0.854,0.023,1.707,0.359,2.516H134.513z"/>
<path d="M151.844,18.878h1.729c1.032,0,2.267-0.156,2.267-1.48c0-0.518-0.269-1.01-0.74-1.258c-0.403-0.202-0.897-0.202-1.347-0.202
	h-1.909V18.878z M151.844,28.062h-4.782v-15.4h7.836c1.347,0,2.829,0.178,3.973,0.942c1.281,0.808,1.887,2.177,1.887,3.681
	c0,2.021-0.898,3.233-2.717,4.063l2.785,6.714h-5.254l-2.245-5.883h-1.482V28.062z"/>
<path d="M169.154,22.697c-1.077,0.112-2.874,0.448-2.874,1.84c0,0.741,0.472,1.055,1.168,1.055c1.684,0,1.706-1.413,1.706-2.67
	V22.697z M169.537,28.062c-0.111-0.518-0.158-1.055-0.158-1.596c-0.896,1.326-2.178,1.82-3.749,1.82
	c-2.133,0-3.995-1.168-3.995-3.457c0-1.819,1.414-3.031,3.008-3.525c1.46-0.449,3.008-0.629,4.512-0.719v-0.09
	c0-1.033-0.269-1.437-1.346-1.437c-0.876,0-1.617,0.315-1.751,1.278l-4.087-0.381c0.674-2.851,3.391-3.592,5.972-3.592
	c1.348,0,3.076,0.18,4.198,0.988c1.504,1.055,1.324,2.537,1.324,4.175v4.019c0,0.854,0.023,1.707,0.359,2.516H169.537z"/>
<path d="M179.707,28.062h-4.445V16.589h4.445V28.062z M179.707,15.49h-4.445v-3.053h4.445V15.49z"/>
<rect x="182.087" y="12.661" width="4.444" height="15.401"/>
<polygon points="206.534,28.062 195.735,28.062 195.735,12.662 200.497,12.662 200.497,24.291 206.534,24.291 "/>
<path d="M212.037,28.062h-4.445V16.589h4.445V28.062z M212.037,15.49h-4.445v-3.053h4.445V15.49z"/>
<path d="M214.19,16.589h4.198v1.617h0.045c0.54-1.303,1.864-1.842,3.256-1.842c1.077,0,2.313,0.314,2.986,1.189
	c0.717,0.944,0.717,2.246,0.717,3.436v7.072h-4.444v-6.961c0-0.695,0-1.66-0.965-1.66c-1.234,0-1.348,1.056-1.348,1.998v6.623
	h-4.445V16.589z"/>
<polygon points="235.699,20.541 239.561,28.062 234.913,28.062 232.758,23.459 231.636,24.896 231.636,28.062 227.191,28.062 
	227.191,12.66 231.636,12.66 231.636,20.967 232.6,19.689 235.294,16.589 239.156,16.589 "/>
</svg>
