<?xml version="1.0" encoding="UTF-8" standalone="no"?>
<!DOCTYPE svg PUBLIC "-//W3C//DTD SVG 1.1//EN" "http://www.w3.org/Graphics/SVG/1.1/DTD/svg11.dtd">
<svg width="100%" height="100%" viewBox="0 0 800 800" version="1.1" xmlns="http://www.w3.org/2000/svg" xmlns:xlink="http://www.w3.org/1999/xlink" xml:space="preserve" xmlns:serif="http://www.serif.com/" style="fill-rule:evenodd;clip-rule:evenodd;stroke-linecap:square;stroke-linejoin:round;">
    <g id="path4239" transform="matrix(5.29408,0,0,5.29408,-1616.5,-1907.27)">
        <path d="M450.001,435.256L450.001,435.28C450.001,473.358 418.667,504.691 380.59,504.691C342.512,504.691 311.179,473.358 311.179,435.28L311.179,435.256C311.179,397.179 342.512,365.845 380.59,365.845C418.667,365.845 450.001,397.179 450.001,435.256Z" style="fill:white;fill-rule:nonzero;stroke:rgb(17,16,116);stroke-width:8.15px;"/>
    </g>
    <path id="rect4241" d="M275.034,47.917L275.034,273.607L43.613,273.607L43.613,520.535L275.034,520.535L275.034,749.091L521.794,749.091L521.794,520.535L744.787,520.535L744.787,273.607L521.794,273.607L521.794,47.917L275.034,47.917Z" style="fill:rgb(17,16,116);fill-rule:nonzero;"/>
    <path id="text4235" d="M153.039,314.107L154.183,364.304L149.918,364.304C147.907,351.718 142.966,341.593 135.095,333.93C127.224,326.267 118.711,322.436 109.557,322.436C102.484,322.436 96.884,324.453 92.758,328.488C88.631,332.524 86.568,337.169 86.568,342.426C86.568,345.758 87.296,348.719 88.753,351.31C90.764,354.79 93.988,358.233 98.427,361.638C101.686,364.082 109.21,368.413 121,374.632C137.505,383.294 148.635,391.475 154.391,399.175C160.078,406.875 162.921,415.686 162.921,425.606C162.921,438.193 158.327,449.021 149.138,458.09C139.949,467.16 128.281,471.695 114.134,471.695C109.696,471.695 105.5,471.213 101.548,470.251C97.595,469.288 92.636,467.474 86.672,464.809C83.343,463.328 80.604,462.588 78.454,462.588C76.651,462.588 74.744,463.328 72.733,464.809C70.722,466.29 69.092,468.548 67.844,471.583L63.995,471.583L63.995,414.723L67.844,414.723C70.895,430.715 76.773,442.913 85.476,451.316C94.179,459.719 103.559,463.921 113.614,463.921C121.381,463.921 127.571,461.662 132.182,457.146C136.794,452.63 139.1,447.373 139.1,441.376C139.1,437.823 138.216,434.38 136.447,431.048C134.679,427.717 131.992,424.551 128.385,421.553C124.779,418.554 118.399,414.649 109.245,409.837C96.416,403.099 87.192,397.361 81.575,392.623C75.958,387.885 71.641,382.591 68.624,376.742C65.608,370.893 64.099,364.452 64.099,357.418C64.099,345.424 68.225,335.207 76.478,326.767C84.73,318.327 95.133,314.107 107.685,314.107C112.262,314.107 116.7,314.699 121,315.884C124.259,316.772 128.229,318.419 132.911,320.826C137.591,323.232 140.868,324.435 142.741,324.435C144.544,324.435 145.965,323.843 147.006,322.658C148.046,321.473 149.017,318.623 149.918,314.107L153.039,314.107ZM219.073,452.815C207.215,463.995 196.57,469.584 187.138,469.584C181.59,469.584 176.979,467.641 173.303,463.754C169.628,459.867 167.79,454.999 167.79,449.15C167.79,441.228 170.98,434.102 177.36,427.772C183.74,421.442 197.645,413.02 219.073,402.507L219.073,392.068C219.073,384.22 218.675,379.278 217.877,377.242C217.08,375.206 215.571,373.429 213.352,371.911C211.133,370.393 208.636,369.635 205.862,369.634C201.355,369.635 197.645,370.708 194.732,372.855C192.929,374.188 192.027,375.743 192.027,377.519C192.027,379.074 192.998,380.999 194.94,383.294C197.575,386.478 198.893,389.55 198.893,392.512C198.893,396.14 197.627,399.231 195.096,401.785C192.565,404.339 189.253,405.616 185.162,405.616C180.793,405.616 177.135,404.21 174.187,401.396C171.24,398.583 169.766,395.288 169.766,391.512C169.766,386.182 171.743,381.092 175.696,376.242C179.649,371.393 185.162,367.673 192.235,365.081C199.309,362.49 206.66,361.194 214.288,361.194C223.512,361.194 230.811,363.286 236.185,367.469C241.56,371.652 245.044,376.187 246.64,381.073C247.61,384.183 248.096,391.327 248.096,402.507L248.096,442.82C248.096,447.558 248.269,450.538 248.616,451.76C248.963,452.982 249.483,453.889 250.176,454.481C250.87,455.073 251.667,455.369 252.569,455.369C254.372,455.369 256.21,454 258.082,451.26L261.203,453.926C257.735,459.404 254.146,463.384 250.436,465.864C246.726,468.344 242.513,469.584 237.798,469.584C232.25,469.584 227.915,468.196 224.795,465.42C221.674,462.643 219.767,458.442 219.073,452.815ZM219.073,444.708L219.073,409.948C210.682,415.204 204.441,420.831 200.349,426.828C197.645,430.826 196.292,434.861 196.292,438.933C196.292,442.339 197.437,445.337 199.725,447.929C201.459,449.928 203.886,450.927 207.007,450.927C210.474,450.927 214.496,448.854 219.073,444.708ZM306.32,364.304L306.32,377.742C311.313,371.967 316.098,367.765 320.675,365.137C325.252,362.509 330.176,361.194 335.446,361.194C341.757,361.194 346.993,363.064 351.154,366.803C355.315,370.542 358.089,375.187 359.476,380.74C360.585,384.96 361.14,393.067 361.14,405.061L361.14,445.485C361.14,453.481 361.816,458.46 363.169,460.422C364.521,462.384 367.347,463.624 371.646,464.143L371.646,468.141L322.443,468.141L322.443,464.143C326.119,463.624 328.754,461.996 330.349,459.256C331.459,457.405 332.014,452.815 332.014,445.485L332.014,399.286C332.014,390.772 331.701,385.404 331.077,383.183C330.453,380.962 329.396,379.241 327.905,378.019C326.414,376.798 324.767,376.187 322.964,376.187C317,376.187 311.452,380.74 306.32,389.847L306.32,445.485C306.32,453.259 306.996,458.183 308.348,460.256C309.701,462.329 312.215,463.624 315.89,464.143L315.89,468.141L266.687,468.141L266.687,464.143C270.779,463.699 273.691,462.292 275.425,459.923C276.604,458.294 277.193,453.481 277.193,445.485L277.193,386.848C277.193,379 276.517,374.114 275.165,372.189C273.813,370.264 270.987,369.005 266.687,368.413L266.687,364.304L306.32,364.304ZM411.76,326.323L411.76,364.304L434.854,364.304L434.854,375.298L411.76,375.298L411.76,439.377C411.76,445.374 412.02,449.243 412.541,450.983C413.061,452.723 413.979,454.129 415.297,455.203C416.615,456.276 417.828,456.813 418.938,456.813C423.446,456.813 427.711,453.148 431.733,445.819L434.854,448.262C429.236,462.477 420.117,469.584 407.495,469.584C401.323,469.584 396.105,467.752 391.84,464.087C387.575,460.422 384.853,456.332 383.674,451.816C382.981,449.298 382.634,442.487 382.634,431.381L382.634,375.298L369.943,375.298L369.943,371.411C394.469,366.565 403.575,348.077 408.328,326.323L411.76,326.323ZM496.662,452.815C484.803,463.995 474.158,469.584 464.727,469.584C459.179,469.584 454.567,467.641 450.892,463.754C447.216,459.867 445.379,454.999 445.379,449.15C445.379,441.228 448.569,434.102 454.949,427.772C461.329,421.442 475.233,413.02 496.662,402.507L496.662,392.068C496.662,384.22 496.263,379.278 495.466,377.242C494.668,375.206 493.16,373.429 490.941,371.911C488.722,370.393 486.225,369.635 483.451,369.634C478.943,369.635 475.233,370.708 472.321,372.855C470.518,374.188 469.616,375.743 469.616,377.519C469.616,379.074 470.587,380.999 472.529,383.294C475.164,386.478 476.482,389.55 476.482,392.512C476.482,396.14 475.216,399.231 472.685,401.785C470.153,404.339 466.842,405.616 462.75,405.616C458.381,405.616 454.723,404.21 451.776,401.396C448.829,398.583 447.355,395.288 447.355,391.512C447.355,386.182 449.331,381.092 453.284,376.242C457.237,371.393 462.75,367.673 469.824,365.081C476.898,362.49 484.249,361.194 491.877,361.194C501.1,361.194 508.399,363.286 513.774,367.469C519.148,371.652 522.633,376.187 524.228,381.073C525.199,384.183 525.684,391.327 525.684,402.507L525.684,442.82C525.684,447.558 525.858,450.538 526.205,451.76C526.551,452.982 527.071,453.889 527.765,454.481C528.458,455.073 529.256,455.369 530.157,455.369C531.96,455.369 533.798,454 535.671,451.26L538.791,453.926C535.324,459.404 531.735,463.384 528.025,465.864C524.315,468.344 520.102,469.584 515.386,469.584C509.838,469.584 505.504,468.196 502.383,465.42C499.263,462.643 497.355,458.442 496.662,452.815ZM496.662,444.708L496.662,409.948C488.271,415.204 482.029,420.831 477.938,426.828C475.233,430.826 473.881,434.861 473.881,438.933C473.881,442.339 475.025,445.337 477.314,447.929C479.047,449.928 481.475,450.927 484.595,450.927C488.063,450.927 492.085,448.854 496.662,444.708ZM604.813,326.212L604.813,388.07L608.87,388.07C615.111,388.07 620.208,387.07 624.161,385.071C628.114,383.072 631.46,379.704 634.199,374.965C636.938,370.227 638.724,363.823 639.556,355.753L643.197,355.753L643.197,431.381L639.556,431.381C638.239,417.092 634.65,407.671 628.79,403.118C622.93,398.565 616.29,396.288 608.87,396.288L604.813,396.288L604.813,442.376C604.813,450.076 605.211,454.888 606.009,456.813C606.806,458.738 608.367,460.422 610.69,461.866C613.013,463.31 616.151,464.032 620.104,464.032L624.785,464.032L624.785,468.141L551.033,468.141L551.033,464.032L555.714,464.032C559.805,464.032 563.099,463.254 565.596,461.7C567.399,460.663 568.786,458.886 569.757,456.369C570.52,454.592 570.901,449.928 570.901,442.376L570.901,343.314C570.901,335.615 570.52,330.802 569.757,328.877C568.994,326.952 567.451,325.268 565.128,323.824C562.805,322.38 559.667,321.659 555.714,321.658L551.033,321.658L551.033,317.549L670.035,317.549L670.035,360.75L665.77,360.75C664.799,350.607 662.32,343.092 658.333,338.206C654.345,333.319 648.572,329.877 641.013,327.878C636.852,326.767 629.154,326.212 617.92,326.212L604.813,326.212ZM746.046,412.502L692.682,412.502C693.306,426.273 696.739,437.156 702.98,445.152C707.765,451.297 713.521,454.37 720.248,454.37C724.409,454.37 728.188,453.13 731.587,450.649C734.985,448.169 738.625,443.709 742.509,437.267L746.046,439.711C740.775,451.186 734.95,459.312 728.57,464.087C722.19,468.863 714.804,471.25 706.413,471.25C691.988,471.25 681.066,465.327 673.646,453.481C667.682,443.931 664.7,432.085 664.7,417.944C664.7,400.619 669.086,386.83 677.859,376.575C686.631,366.321 696.912,361.194 708.702,361.194C718.549,361.194 727.096,365.507 734.343,374.132C741.59,382.758 745.491,395.548 746.046,412.502ZM720.456,405.061C720.456,393.141 719.849,384.96 718.636,380.518C717.422,376.076 715.532,372.707 712.966,370.412C711.51,369.079 709.568,368.413 707.141,368.413C703.535,368.413 700.588,370.301 698.299,374.077C694.208,380.666 692.162,389.699 692.162,401.174L692.162,405.061L720.456,405.061Z" style="fill:white;fill-rule:nonzero;"/>
</svg>
